<?xml version="1.0" standalone="no"?>
<!DOCTYPE svg PUBLIC "-//W3C//DTD SVG 20010904//EN"
 "http://www.w3.org/TR/2001/REC-SVG-20010904/DTD/svg10.dtd">
<svg version="1.0" xmlns="http://www.w3.org/2000/svg"
 width="800.000000pt" height="800.000000pt" viewBox="0 0 800.000000 800.000000"
 preserveAspectRatio="xMidYMid meet">
<metadata>
Created by potrace 1.14, written by Peter Selinger 2001-2017
</metadata>
<g transform="translate(0.000000,800.000000) scale(0.100000,-0.100000)"
fill="#000000" stroke="none">
<path d="M1040 7990 c-25 -4 -63 -11 -84 -14 -60 -10 -207 -61 -287 -101 -165
-81 -317 -208 -430 -358 -99 -131 -189 -337 -225 -512 -4 -22 -9 -1365 -10
-2985 l-3 -2945 23 -110 c75 -361 302 -662 625 -829 89 -46 239 -101 302 -111
19 -3 59 -10 89 -15 65 -11 5912 -8 5950 3 26 7 92 20 100 20 3 0 43 13 90 29
190 67 324 151 466 293 103 103 170 195 230 317 39 77 90 225 100 283 3 20 9
47 12 59 4 11 8 1346 9 2966 l2 2945 -23 110 c-102 492 -485 862 -981 949 -67
12 -535 14 -2995 14 -1603 0 -2935 -4 -2960 -8z"/>
</g>
</svg>
