<?xml version="1.0" standalone="no"?>
<!DOCTYPE svg PUBLIC "-//W3C//DTD SVG 20010904//EN"
 "http://www.w3.org/TR/2001/REC-SVG-20010904/DTD/svg10.dtd">
<svg version="1.0" xmlns="http://www.w3.org/2000/svg"
 width="1603.000000pt" height="1603.000000pt" viewBox="0 0 1603.000000 1603.000000"
 preserveAspectRatio="xMidYMid meet">
<metadata>
Created by potrace 1.14, written by Peter Selinger 2001-2017
</metadata>
<g transform="translate(0.000000,1603.000000) scale(0.100000,-0.100000)"
fill="#000000" stroke="none">
<path d="M4139 15366 c-2 -2 -51 -6 -109 -10 -58 -3 -114 -8 -125 -10 -11 -2
-52 -7 -90 -10 -39 -4 -80 -8 -91 -10 -12 -2 -45 -7 -75 -11 -30 -4 -119 -20
-199 -36 -80 -17 -156 -32 -170 -35 -14 -3 -66 -16 -116 -29 -406 -110 -748
-258 -1132 -490 -107 -65 -356 -248 -482 -354 -194 -164 -469 -444 -605 -616
-22 -27 -44 -55 -50 -61 -5 -6 -17 -22 -25 -34 -8 -13 -26 -37 -40 -54 -148
-184 -355 -544 -482 -840 -152 -357 -276 -830 -313 -1201 -3 -33 -8 -70 -10
-82 -26 -159 -27 -799 -1 -1033 3 -19 7 -62 10 -95 3 -33 8 -69 10 -80 2 -11
7 -42 10 -70 13 -102 18 -131 27 -173 5 -23 12 -59 15 -80 19 -124 97 -430
161 -632 217 -686 624 -1413 1246 -2230 61 -80 116 -150 121 -157 6 -6 22 -26
36 -44 37 -49 252 -313 260 -319 3 -3 13 -14 21 -26 8 -11 37 -47 65 -80 28
-32 98 -113 155 -179 57 -66 116 -133 130 -150 15 -16 36 -39 46 -51 10 -12
52 -58 93 -104 41 -46 83 -92 92 -102 18 -21 168 -184 228 -248 263 -279 409
-429 835 -855 276 -275 588 -583 695 -685 106 -102 219 -210 250 -240 51 -49
196 -187 444 -421 45 -42 97 -91 116 -109 19 -17 89 -82 154 -143 66 -62 134
-125 152 -142 87 -81 254 -235 302 -280 30 -27 69 -63 87 -80 17 -16 76 -70
130 -120 54 -49 110 -101 125 -115 50 -46 213 -195 230 -210 18 -16 177 -160
219 -199 96 -87 194 -176 213 -193 13 -11 39 -34 58 -52 19 -17 80 -72 135
-121 55 -50 118 -106 139 -125 21 -19 44 -39 50 -45 6 -5 36 -32 66 -60 30
-27 91 -81 134 -120 44 -38 91 -81 105 -94 46 -41 168 -151 192 -172 13 -11
60 -53 103 -92 44 -40 87 -79 96 -87 10 -8 48 -43 86 -76 38 -34 87 -78 109
-97 l39 -35 31 25 c16 14 67 59 112 101 46 41 91 82 101 91 11 9 52 46 93 83
41 36 83 75 95 85 26 23 169 150 203 182 14 12 55 49 91 81 36 32 79 70 95 85
76 70 134 123 166 150 153 136 230 206 269 242 25 23 56 51 70 63 33 28 176
158 210 190 25 24 173 158 210 190 16 14 159 144 230 210 15 14 69 63 120 110
118 108 125 115 256 236 60 56 121 112 136 126 45 41 259 240 309 288 26 25
94 88 150 140 56 52 121 113 144 135 23 22 109 103 190 180 456 433 692 662
1170 1140 264 264 530 532 590 596 142 150 310 330 371 398 27 30 63 68 79 86
17 17 59 64 95 105 36 40 74 84 85 96 11 12 46 51 77 86 31 34 67 76 80 93 12
16 34 41 48 55 32 34 58 65 150 175 41 50 77 92 80 95 5 4 191 235 267 330 34
42 141 180 158 205 11 15 25 32 30 39 6 6 28 36 50 66 22 30 43 60 48 65 11
15 80 109 97 135 8 12 29 41 47 65 39 52 275 410 293 445 7 14 16 27 19 30 3
3 11 14 18 25 22 36 76 129 101 174 39 71 82 145 92 161 22 36 180 352 210
420 18 41 40 93 50 115 62 138 144 361 186 502 32 107 74 258 73 258 -1 0 4
20 11 45 7 25 13 52 15 60 2 8 10 44 18 80 21 91 66 335 72 395 3 28 7 61 10
75 2 14 7 50 10 80 4 30 8 69 10 85 27 226 27 814 0 1040 -2 17 -6 55 -9 85
-7 67 -14 118 -26 190 -5 30 -12 71 -15 90 -54 343 -196 782 -366 1125 -76
154 -89 180 -154 290 -81 140 -297 443 -390 550 -15 17 -48 55 -73 85 -68 80
-335 346 -422 421 -41 35 -77 66 -80 69 -3 3 -27 24 -55 45 -27 22 -52 42 -55
46 -3 3 -45 34 -95 69 -49 36 -92 67 -95 71 -3 3 -43 30 -90 61 -525 339
-1055 540 -1695 642 -16 3 -70 10 -120 16 -49 6 -103 13 -120 15 -179 27 -780
26 -1013 0 -91 -10 -148 -17 -167 -20 -11 -2 -40 -7 -65 -11 -25 -4 -54 -8
-65 -10 -11 -2 -33 -5 -50 -8 -330 -51 -831 -215 -1195 -390 -280 -135 -625
-346 -830 -509 -221 -175 -283 -230 -470 -417 -80 -80 -174 -178 -210 -218
l-64 -74 -60 69 c-79 89 -364 374 -441 439 -69 59 -144 122 -171 144 -23 19
-254 189 -309 228 -56 39 -209 132 -333 202 -301 171 -789 371 -1061 436 -9 2
-59 15 -111 28 -52 14 -106 27 -120 30 -108 21 -190 36 -220 41 -19 3 -42 7
-50 10 -8 2 -42 6 -75 10 -33 3 -67 8 -75 10 -8 2 -49 7 -90 10 -41 3 -88 9
-105 11 -33 6 -651 15 -656 10z"/>
</g>
</svg>
